<?xml version="1.0" encoding="UTF-8"?>
<svg version="1.1" xmlns="http://www.w3.org/2000/svg" width="166" height="182">
<path d="M0 0 C4.92871856 1.37425486 6.48476485 3.60554374 9.3515625 7.6640625 C9.80273438 8.26863281 10.25390625 8.87320313 10.71875 9.49609375 C12.07806138 11.32803926 13.40563208 13.17929325 14.7265625 15.0390625 C15.44344238 16.04018066 15.44344238 16.04018066 16.17480469 17.06152344 C17.36126164 18.71888941 18.54426625 20.37872589 19.7265625 22.0390625 C20.34660156 21.59175781 20.96664062 21.14445312 21.60546875 20.68359375 C39.0873511 8.74909183 60.07626414 6.21217275 80.7265625 9.0390625 C86.87041947 10.21857654 92.79654541 12.06239014 98.7265625 14.0390625 C98.25536111 18.7342478 96.46191536 20.81886742 93.2265625 24.1640625 C92.30370859 25.13846974 91.38318411 26.11508775 90.46484375 27.09375 C90.00158691 27.58584961 89.53833008 28.07794922 89.06103516 28.58496094 C87.08104116 30.74245165 85.24919573 33.00791359 83.4140625 35.2890625 C77.70017506 42.36291604 71.70855389 49.19222895 65.7265625 56.0390625 C64.93894531 56.94140625 64.15132813 57.84375 63.33984375 58.7734375 C61.80406076 60.53039816 60.26679249 62.28600074 58.7265625 64.0390625 C53.59109136 61.28996271 49.8176874 57.48158812 45.71875 53.421875 C41.06221567 48.96490643 36.80518505 45.9859828 30.1015625 46.1015625 C25.44980054 47.3937186 22.82851059 49.18578616 20.3515625 53.3515625 C19.17839165 58.39619714 20.11386225 61.97177819 22.6640625 66.4140625 C24.45916027 69.08328068 24.45916027 69.08328068 26.7265625 70.0390625 C26.7265625 70.6990625 26.7265625 71.3590625 26.7265625 72.0390625 C27.60272217 72.42976929 27.60272217 72.42976929 28.49658203 72.82836914 C30.87083616 74.11739106 32.48009576 75.5228501 34.40625 77.41015625 C35.08816406 78.06693359 35.77007812 78.72371094 36.47265625 79.40039062 C37.88597165 80.77869729 39.29744828 82.15889207 40.70703125 83.54101562 C47.14623295 89.81793503 47.14623295 89.81793503 55.6015625 92.2265625 C56.3028125 92.1646875 57.0040625 92.1028125 57.7265625 92.0390625 C57.14390625 91.51699219 56.56125 90.99492187 55.9609375 90.45703125 C50.68155439 85.71720774 45.41989384 80.95985187 40.21459961 76.13867188 C37.77513009 73.88527364 35.31692225 71.69344549 32.77734375 69.55078125 C31.87371094 68.78378906 30.97007813 68.01679687 30.0390625 67.2265625 C28.82669922 66.22689453 28.82669922 66.22689453 27.58984375 65.20703125 C25.24743948 62.48159232 24.92657755 60.59171074 24.7265625 57.0390625 C25.7890625 54.2265625 25.7890625 54.2265625 27.7265625 52.0390625 C30.4140625 50.8515625 30.4140625 50.8515625 33.7265625 51.0390625 C38.16128503 53.24091774 41.63776497 56.94111822 45.2109375 60.30078125 C46.1400293 61.17355713 46.1400293 61.17355713 47.08789062 62.06396484 C48.33474875 63.24409608 49.57326667 64.43310975 50.80273438 65.63134766 C51.38087891 66.18483887 51.95902344 66.73833008 52.5546875 67.30859375 C53.0693457 67.80979736 53.58400391 68.31100098 54.11425781 68.82739258 C55.95683568 70.21211607 57.47679769 70.627825 59.7265625 71.0390625 C64.6571619 65.71730907 69.50350464 60.39179462 74.0390625 54.7265625 C78.1097539 49.67602326 82.4685261 44.96593383 86.91357422 40.2487793 C90.31637806 36.61735426 93.54154357 32.9145666 96.6640625 29.0390625 C97.37433594 28.16507813 98.08460937 27.29109375 98.81640625 26.390625 C99.98313826 24.95428008 101.14362395 23.51279543 102.29296875 22.0625 C103.7265625 20.4140625 103.7265625 20.4140625 106.7265625 18.0390625 C108.70703125 17.953125 108.70703125 17.953125 110.9140625 18.0390625 C113.62323333 17.9562695 115.16554739 17.56696413 117.15771484 15.69238281 C120.19728613 12.20061915 122.89886303 8.46217477 125.51904297 4.64892578 C128.88173757 0.16578624 128.88173757 0.16578624 132.2265625 -0.3359375 C134.7265625 0.0390625 134.7265625 0.0390625 136.6015625 1.1015625 C137.99644294 3.50385659 138.01780789 5.20258571 137.48046875 7.90625 C135.32643285 14.00005104 131.26697087 19.44615895 126.8984375 24.14453125 C124.01031456 27.33196431 121.66587846 30.16484816 119.7265625 34.0390625 C120.06792941 39.19107693 121.73142645 43.32444165 123.7265625 48.0390625 C123.7265625 49.0290625 123.7265625 50.0190625 123.7265625 51.0390625 C124.31671143 51.02858887 124.90686035 51.01811523 125.51489258 51.00732422 C128.18957254 50.96574206 130.86418447 50.9397296 133.5390625 50.9140625 C134.46783203 50.89730469 135.39660156 50.88054687 136.35351562 50.86328125 C137.24619141 50.85683594 138.13886719 50.85039063 139.05859375 50.84375 C139.88077393 50.83327637 140.7029541 50.82280273 141.55004883 50.81201172 C143.7265625 51.0390625 143.7265625 51.0390625 146.7265625 53.0390625 C147.39169344 59.13609608 147.39169344 59.13609608 145.48120117 61.72973633 C143.29079806 63.3642336 141.99230649 63.45967512 139.27734375 63.55078125 C138.42978516 63.58623047 137.58222656 63.62167969 136.70898438 63.65820312 C135.82791016 63.68076172 134.94683594 63.70332031 134.0390625 63.7265625 C133.14638672 63.76072266 132.25371094 63.79488281 131.33398438 63.83007812 C129.13163579 63.91251898 126.92968312 63.98167801 124.7265625 64.0390625 C124.60539063 64.98007813 124.48421875 65.92109375 124.359375 66.890625 C124.19179687 68.13585937 124.02421875 69.38109375 123.8515625 70.6640625 C123.60792969 72.50871094 123.60792969 72.50871094 123.359375 74.390625 C122.7265625 78.0390625 122.7265625 78.0390625 121.59375 81.1875 C120.60477954 84.43951997 120.54117936 85.86790932 121.7265625 89.0390625 C123.77385521 91.63946079 123.77385521 91.63946079 126.3515625 94.1640625 C138.41203861 107.00431078 138.41203861 107.00431078 138.9765625 114.24609375 C138.7265625 117.0390625 138.7265625 117.0390625 137.6015625 118.9140625 C134.76901894 120.61358863 132.96309343 120.56747571 129.7265625 120.0390625 C127.7890625 118.1640625 127.7890625 118.1640625 125.7265625 115.0390625 C124.56357175 113.36982872 123.39656116 111.7033918 122.2265625 110.0390625 C121.62714844 109.17539063 121.02773437 108.31171875 120.41015625 107.421875 C118.61192305 104.87681177 116.72153759 102.43303261 114.7265625 100.0390625 C111.467074 101.42893097 109.77167575 102.95121666 107.6015625 105.7265625 C97.94802883 117.04025801 84.42763298 122.64233499 69.81640625 123.8828125 C54.5600295 124.7237437 41.06876639 120.18611681 29.7265625 110.0390625 C28.02069675 108.41253934 26.3488079 106.74899684 24.7265625 105.0390625 C23.62503421 103.93226374 22.52079997 102.82815236 21.4140625 101.7265625 C20.5271875 100.8396875 19.6403125 99.9528125 18.7265625 99.0390625 C13.44697878 103.83624771 9.48424982 108.57302576 6.05078125 114.83984375 C4.77219167 116.96328309 3.64932607 118.48206886 1.7265625 120.0390625 C-1.41829675 120.43216991 -3.40625421 120.51461463 -6.2109375 118.9765625 C-7.52390895 116.58232045 -7.55749305 114.8497327 -7.03515625 112.1875 C-3.81352055 103.1008352 3.71588221 93.37951602 11.7265625 88.0390625 C11.4363691 86.70540774 11.14430358 85.37216035 10.8515625 84.0390625 C10.67109375 83.21535156 10.490625 82.39164062 10.3046875 81.54296875 C9.66013829 78.75137387 8.90376942 76.00174137 8.09375 73.25390625 C7.52835863 69.84351365 7.67624045 66.49331179 7.7265625 63.0390625 C7.10612061 63.06000977 6.48567871 63.08095703 5.84643555 63.10253906 C3.03580932 63.18567656 0.22544154 63.23771311 -2.5859375 63.2890625 C-3.56240234 63.32257813 -4.53886719 63.35609375 -5.54492188 63.390625 C-6.95161133 63.40996094 -6.95161133 63.40996094 -8.38671875 63.4296875 C-9.25079346 63.45063477 -10.11486816 63.47158203 -11.00512695 63.49316406 C-13.2734375 63.0390625 -13.2734375 63.0390625 -15.09057617 61.20996094 C-16.75629071 58.15288484 -16.20094493 56.32101187 -15.2734375 53.0390625 C-12.79286122 50.55848622 -11.91151286 50.74887245 -8.484375 50.625 C-7.54335937 50.58632812 -6.60234375 50.54765625 -5.6328125 50.5078125 C-4.64796875 50.476875 -3.663125 50.4459375 -2.6484375 50.4140625 C-1.65585938 50.37539062 -0.66328125 50.33671875 0.359375 50.296875 C2.81491635 50.2024311 5.2704466 50.11686375 7.7265625 50.0390625 C8.20957453 48.33181242 8.68778208 46.62320276 9.1640625 44.9140625 C9.43089844 43.96273437 9.69773437 43.01140625 9.97265625 42.03125 C10.22144531 41.04382813 10.47023438 40.05640625 10.7265625 39.0390625 C11.02691406 38.06582031 11.32726562 37.09257813 11.63671875 36.08984375 C11.76628862 31.69010176 9.48836725 29.49230026 6.7265625 26.3515625 C5.70748157 25.12134422 4.69187644 23.88823877 3.6796875 22.65234375 C2.92655273 21.740896 2.92655273 21.740896 2.15820312 20.81103516 C0.13211829 18.30330601 -1.72367408 15.71310123 -3.5234375 13.0390625 C-4.08546875 12.2140625 -4.6475 11.3890625 -5.2265625 10.5390625 C-6.58709582 7.2900277 -6.22276657 5.38963569 -5.2734375 2.0390625 C-3.2734375 0.0390625 -3.2734375 0.0390625 0 0 Z " fill="#FDFDFD" transform="translate(17.2734375,57.9609375)"/>
<path d="M0 0 C7.46196569 4.17870079 11.9755904 10.3990691 15.375 18.125 C16.10483114 21.48222324 16.13700805 24.57479882 16 28 C17.175625 27.67 18.35125 27.34 19.5625 27 C28.87805783 24.93642706 38.91523795 25.03354709 48 28 C47.9175 27.030625 47.835 26.06125 47.75 25.0625 C47.78188552 17.15489205 52.69809791 9.58094956 58 4 C61.39160591 1.25473156 64.48853567 -0.73129523 68.8125 -1.5 C71 -1 71 -1 72.8125 0.0625 C74.84058898 3.37148728 74.76028048 5.1985976 74 9 C71.87841994 10.91826198 69.60307625 12.47849346 67.265625 14.125 C63.62005885 17.14202026 62.28584082 20.53339505 61 25 C60.76925781 25.74507812 60.53851563 26.49015625 60.30078125 27.2578125 C59.50571054 30.90877719 59.41049151 33.03938032 61.40234375 36.28515625 C62.64368474 37.81518119 63.91272156 39.32310858 65.20703125 40.80859375 C68.71680018 45.09831134 69.83981478 49.37145025 70.375 54.8125 C69.96373125 58.30828436 69.50774351 58.79079739 67 61 C66.15179688 60.73445313 65.30359375 60.46890625 64.4296875 60.1953125 C42.77394084 53.67479098 22.63109177 53.80068342 1 60 C-1.875 60.1875 -1.875 60.1875 -4 60 C-5.59468098 58.40531902 -5.28538976 56.77173718 -5.375 54.5625 C-5.33181106 48.55060019 -3.24861095 43.98730413 0 39 C0.54140625 38.505 1.0828125 38.01 1.640625 37.5 C4.00137689 34.8950324 3.46326721 32.11735785 3.3359375 28.7578125 C2.63132566 22.97344092 1.19431104 17.97181097 -3.234375 13.9921875 C-4.81088648 12.83239721 -6.42325504 11.71907331 -8.07421875 10.66796875 C-10 9 -10 9 -10.83203125 6.48828125 C-11 4 -11 4 -10 1 C-6.55758337 -1.54993824 -3.98960347 -1.2275703 0 0 Z " fill="#FDFEFD" transform="translate(51,4)"/>
<path d="M0 0 C1.95891897 2.31508606 2.03780499 4.24573241 2.5 7.25 C1.43880945 15.20892911 -5.57856094 20.81745425 -10.81640625 26.5234375 C-13.36377617 29.41258335 -15.61479858 32.43899739 -17.80859375 35.6015625 C-18.20175781 36.06304687 -18.59492187 36.52453125 -19 37 C-19.66 37 -20.32 37 -21 37 C-21.27384521 37.59224365 -21.54769043 38.1844873 -21.82983398 38.79467773 C-22.95817714 40.92117965 -24.13079694 42.49105363 -25.72265625 44.28515625 C-26.25697266 44.89302979 -26.79128906 45.50090332 -27.34179688 46.12719727 C-27.90962891 46.76584717 -28.47746094 47.40449707 -29.0625 48.0625 C-30.24207926 49.40520214 -31.42045793 50.74895991 -32.59765625 52.09375 C-33.17660645 52.75503906 -33.75555664 53.41632813 -34.35205078 54.09765625 C-36.61835952 56.71381591 -38.81396606 59.37880234 -41 62.0625 C-41.70769531 62.92875 -42.41539063 63.795 -43.14453125 64.6875 C-44.26759051 66.08718649 -45.3743481 67.50047617 -46.44921875 68.9375 C-48.36094166 71.4462594 -50.12446135 73.07744262 -52.8125 74.75 C-57.77470924 75.13919288 -60.30923698 72.08555174 -64 69 C-66.87554438 66.43890026 -69.66321485 63.79505996 -72.4375 61.125 C-77.02567798 56.73365806 -81.6087457 52.42618334 -86.5 48.375 C-89.10816619 46.07516354 -89.94590835 45.13793371 -91.25 41.8125 C-90.93952315 38.31963544 -90.33359787 36.63470727 -88 34 C-85.3125 32.8125 -85.3125 32.8125 -82 33 C-77.56527747 35.20185524 -74.08879753 38.90205572 -70.515625 42.26171875 C-69.89623047 42.84356934 -69.27683594 43.42541992 -68.63867188 44.02490234 C-67.39181375 45.20503358 -66.15329583 46.39404725 -64.92382812 47.59228516 C-64.05661133 48.42252197 -64.05661133 48.42252197 -63.171875 49.26953125 C-62.3998877 50.02133667 -62.3998877 50.02133667 -61.61230469 50.78833008 C-59.76972682 52.17305357 -58.24976481 52.5887625 -56 53 C-51.0694006 47.67824657 -46.22305786 42.35273212 -41.6875 36.6875 C-37.6168086 31.63696076 -33.2580364 26.92687133 -28.81298828 22.2097168 C-24.63112333 17.74688856 -20.76582097 13.11899379 -16.93359375 8.3515625 C-8.20121512 -2.2684212 -8.20121512 -2.2684212 0 0 Z " fill="#8FCC35" transform="translate(133,76)"/>
<path d="M0 0 C2.4921875 1.8203125 2.4921875 1.8203125 4.875 4.125 C5.72835937 4.93453125 6.58171875 5.7440625 7.4609375 6.578125 C8.29882812 7.37734375 9.13671875 8.1765625 10 9 C12.12208178 10.84712766 14.26093068 12.672183 16.40625 14.4921875 C18 16 18 16 20 19 C15.03386254 17.0862202 11.6027346 12.89432247 7.953125 9.16796875 C4.4489782 5.76839364 4.4489782 5.76839364 -0.2265625 4.5703125 C-3.07708184 4.93277547 -3.07708184 4.93277547 -6 6 C-6.73323796 8.01508358 -6.73323796 8.01508358 -7 10 C-6.34 10 -5.68 10 -5 10 C-5 10.99 -5 11.98 -5 13 C-4.38125 13.268125 -3.7625 13.53625 -3.125 13.8125 C-1 15 -1 15 1 18 C1.99 18.33 2.98 18.66 4 19 C4.61875 19.94875 5.2375 20.8975 5.875 21.875 C8.07364891 25.10830722 9.6286448 26.18465489 13 28 C14.02196992 28.97753644 15.01979625 29.9805881 16 31 C17.05838713 31.8592576 18.12126526 32.71299989 19.1875 33.5625 C20.115625 34.366875 21.04375 35.17125 22 36 C22 36.66 22 37.32 22 38 C24.64 38 27.28 38 30 38 C28.3125 39.625 28.3125 39.625 26 41 C20.69813478 40.1163558 16.7990033 35.51804807 13 32 C11.98193271 31.06232422 10.96369217 30.12483651 9.9453125 29.1875 C8.27466717 27.64903541 6.60678973 26.10800799 4.94628906 24.55859375 C2.33238568 22.12322317 -0.29679355 19.74845405 -3.0234375 17.4375 C-3.92320313 16.674375 -4.82296875 15.91125 -5.75 15.125 C-6.54921875 14.46757813 -7.3484375 13.81015625 -8.171875 13.1328125 C-10.4919818 10.42602124 -10.81590123 8.5261996 -11 5 C-8.28060584 -0.8272732 -6.15650639 -1.58828789 0 0 Z " fill="#9ED054" transform="translate(53,110)"/>
<path d="M0 0 C5.70813695 0.16426293 8.52436024 3.73274979 12.375 7.5625 C14.18202865 9.17282742 15.99462599 10.77692584 17.8125 12.375 C22.24879973 16.31009945 22.24879973 16.31009945 23.375 18.5625 C18.40886254 16.6487202 14.9777346 12.45682247 11.328125 8.73046875 C7.8239782 5.33089364 7.8239782 5.33089364 3.1484375 4.1328125 C0.29791816 4.49527547 0.29791816 4.49527547 -2.625 5.5625 C-3.35823796 7.57758358 -3.35823796 7.57758358 -3.625 9.5625 C-2.965 9.5625 -2.305 9.5625 -1.625 9.5625 C-1.955 10.5525 -2.285 11.5425 -2.625 12.5625 C-5.00100959 9.09748602 -6.19758316 6.79961541 -5.625 2.5625 C-3.625 0.5625 -3.625 0.5625 0 0 Z " fill="#9CD446" transform="translate(49.625,110.4375)"/>
<path d="M0 0 C0 3.6408385 -1.10652063 4.94130256 -3 8 C-3.268125 8.886875 -3.53625 9.77375 -3.8125 10.6875 C-4.204375 11.450625 -4.59625 12.21375 -5 13 C-5.88945313 13.23589844 -6.77890625 13.47179687 -7.6953125 13.71484375 C-12.16057381 15.45133426 -14.14881505 18.1830792 -17.0625 21.875 C-20.44523143 26.07634377 -23.60340868 29.78927826 -28 33 C-26.40210037 29.13764833 -23.77866626 26.41764951 -20.9375 23.4375 C-17.19669966 19.44575097 -13.61902783 15.39106606 -10.1875 11.125 C-6.98995566 7.1510735 -3.69887528 3.50918937 0 0 Z " fill="#ACE659" transform="translate(109,93)"/>
<path d="M0 0 C0.33 0.99 0.66 1.98 1 3 C0.01 3.33 -0.98 3.66 -2 4 C-2.20625 4.99 -2.4125 5.98 -2.625 7 C-3.97789105 12.62149558 -8.61270253 16.51112522 -13 20 C-15.2890625 20.7578125 -15.2890625 20.7578125 -17 21 C-14.94196512 17.39843896 -12.75464117 14.11007874 -10 11 C-9.34 11 -8.68 11 -8 11 C-7.73445313 10.41734375 -7.46890625 9.8346875 -7.1953125 9.234375 C-5.96697004 6.93825772 -4.59685061 5.19643982 -2.875 3.25 C-2.33617188 2.63640625 -1.79734375 2.0228125 -1.2421875 1.390625 C-0.83226563 0.93171875 -0.42234375 0.4728125 0 0 Z " fill="#EAF9D2" transform="translate(122,102)"/>
<path d="M0 0 C0 3.6408385 -1.10652063 4.94130256 -3 8 C-3.69822617 9.65369357 -4.37498605 11.31727014 -5 13 C-6.32 12.67 -7.64 12.34 -9 12 C-6.78268341 6.8262613 -4.04983806 3.77984886 0 0 Z " fill="#9FD64D" transform="translate(109,93)"/>
<path d="M0 0 C0 3.66184524 -0.919642 5.02806 -3 8 C-4.9375 9.875 -4.9375 9.875 -7 11 C-9.25 10.6875 -9.25 10.6875 -11 10 C-10.29875 9.649375 -9.5975 9.29875 -8.875 8.9375 C-5.21195759 6.46892794 -2.73603631 3.43179812 0 0 Z " fill="#ECFBDB" transform="translate(90,140)"/>
<path d="M0 0 C1.32 0.66 2.64 1.32 4 2 C3.19152271 3.16945792 2.37810888 4.33550461 1.5625 5.5 C1.11003906 6.1496875 0.65757813 6.799375 0.19140625 7.46875 C-0.20175781 7.9740625 -0.59492187 8.479375 -1 9 C-1.33 9 -1.66 9 -2 9 C-2.25 3.375 -2.25 3.375 0 0 Z " fill="#94CA48" transform="translate(97,125)"/>
<path d="M0 0 C0.66 0.33 1.32 0.66 2 1 C-0.97 3.475 -0.97 3.475 -4 6 C-4.66 5.67 -5.32 5.34 -6 5 C-3.375 1.125 -3.375 1.125 0 0 Z " fill="#EDF9E0" transform="translate(111,117)"/>
<path d="M0 0 C0.66 0.33 1.32 0.66 2 1 C2.125 4.375 2.125 4.375 2 8 C1.34 8.66 0.68 9.32 0 10 C-0.99 8.02 -1.98 6.04 -3 4 C-2.34 3.67 -1.68 3.34 -1 3 C-0.67 2.01 -0.34 1.02 0 0 Z " fill="#95C848" transform="translate(133,79)"/>
<path d="M0 0 C0.66 0.33 1.32 0.66 2 1 C0.625 3 0.625 3 -1 5 C-1.66 5 -2.32 5 -3 5 C-3.33 5.99 -3.66 6.98 -4 8 C-4.66 7.01 -5.32 6.02 -6 5 C-3.375 1.125 -3.375 1.125 0 0 Z " fill="#97C752" transform="translate(115,108)"/>
<path d="M0 0 C1 2 1 2 0.375 4.5625 C-1 7 -1 7 -3.625 7.8125 C-4.40875 7.874375 -5.1925 7.93625 -6 8 C-4.02 5.36 -2.04 2.72 0 0 Z " fill="#E7F8D1" transform="translate(104,123)"/>
<path d="M0 0 C0.99 0.33 1.98 0.66 3 1 C1.35 2.98 -0.3 4.96 -2 7 C-2.66 5.68 -3.32 4.36 -4 3 C-3.34 2.34 -2.68 1.68 -2 1 C-1.34 1.33 -0.68 1.66 0 2 C0 1.34 0 0.68 0 0 Z " fill="#96CA4B" transform="translate(120,101)"/>
<path d="M0 0 C0 0.33 0 0.66 0 1 C-2.31 1 -4.62 1 -7 1 C-7 1.66 -7 2.32 -7 3 C-8.32 2.67 -9.64 2.34 -11 2 C-6.97107804 -0.96244261 -4.82799816 -1.2350693 0 0 Z " fill="#A3DA5C" transform="translate(133,76)"/>
</svg>
